<?xml version="1.0" encoding="UTF-8" standalone="no"?>
<!-- Created with Inkscape (http://www.inkscape.org/) -->

<svg
   width="500"
   height="500"
   viewBox="0 0 132.29166 132.29167"
   version="1.1"
   id="svg1"
   xml:space="preserve"
   inkscape:version="1.3 (0e150ed6c4, 2023-07-21)"
   sodipodi:docname="svg-icon-assets.svg"
   xmlns:inkscape="http://www.inkscape.org/namespaces/inkscape"
   xmlns:sodipodi="http://sodipodi.sourceforge.net/DTD/sodipodi-0.dtd"
   xmlns="http://www.w3.org/2000/svg"
   xmlns:svg="http://www.w3.org/2000/svg"><sodipodi:namedview
     id="namedview1"
     pagecolor="#90c86c"
     bordercolor="#000000"
     borderopacity="0.25"
     inkscape:showpageshadow="2"
     inkscape:pageopacity="0.0"
     inkscape:pagecheckerboard="0"
     inkscape:deskcolor="#d1d1d1"
     inkscape:document-units="mm"
     shape-rendering="crispEdges"
     showgrid="true"
     inkscape:zoom="0.25606581"
     inkscape:cx="-583.8343"
     inkscape:cy="857.20153"
     inkscape:window-width="1920"
     inkscape:window-height="1009"
     inkscape:window-x="-8"
     inkscape:window-y="-8"
     inkscape:window-maximized="1"
     inkscape:current-layer="layer1"><inkscape:grid
       id="grid1"
       units="px"
       originx="-1350.3088"
       originy="2.7542414"
       spacingx="0.26458332"
       spacingy="0.26458334"
       empcolor="#0099e5"
       empopacity="0.30196078"
       color="#0099e5"
       opacity="0.14901961"
       empspacing="5"
       dotted="false"
       gridanglex="30"
       gridanglez="30"
       visible="true" /></sodipodi:namedview><defs
     id="defs1" /><g
     inkscape:label="Layer 1"
     inkscape:groupmode="layer"
     id="layer1"
     transform="translate(-357.26921,0.72872637)"><path
       fill-rule="evenodd"
       clip-rule="evenodd"
       d="m 423.4698,-0.72872636 c -36.6072,0 -66.20058,30.31674136 -66.20058,67.82261836 0,29.98049 18.96151,55.358318 45.2661,64.340338 3.28876,0.67523 4.49343,-1.45934 4.49343,-3.25491 0,-1.57233 -0.10843,-6.96182 -0.10843,-12.5773 -18.4154,4.04314 -22.25024,-8.08492 -22.25024,-8.08492 -2.95947,-7.860287 -7.34448,-9.880477 -7.34448,-9.880477 -6.02735,-4.15477 0.43907,-4.15477 0.43907,-4.15477 6.68591,0.448949 10.19418,6.961797 10.19418,6.961797 5.91759,10.32973 15.45323,7.41106 19.28942,5.61413 0.54745,-4.37941 2.30227,-7.411058 4.16549,-9.095007 -14.6876,-1.57234 -30.14082,-7.411064 -30.14082,-33.462771 0,-7.411062 2.62884,-13.474421 6.79433,-18.190025 -0.65721,-1.683951 -2.95948,-8.647149 0.65856,-17.966796 0,0 5.58966,-1.796972 18.19317,6.961845 a 63.647607,64.726168 0 0 1 16.55081,-2.246189 c 5.58966,0 11.28773,0.78682 16.54946,2.246189 12.60486,-8.758817 18.19452,-6.961845 18.19452,-6.961845 3.61804,9.319647 1.31441,16.282845 0.65721,17.966796 4.27524,4.715604 6.79567,10.778963 6.79567,18.190025 0,26.051707 -15.45321,31.77741 -30.25057,33.462771 2.41203,2.133163 4.49342,6.174927 4.49342,12.575887 0,9.09502 -0.10843,16.39446 -0.10843,18.63927 0,1.79696 1.20601,3.93153 4.49341,3.25768 26.30461,-8.98478 45.26609,-34.361228 45.26609,-64.341718 0.10842,-37.505877 -29.59336,-67.82261836 -66.09078,-67.82261836 z"
       fill="#24292f"
       id="path1"
       style="fill:#000000;stroke-width:1.36651" /></g></svg>
