<?xml version="1.0" encoding="UTF-8" standalone="no"?>
<!-- Created with Inkscape (http://www.inkscape.org/) -->

<svg
   width="499.99994"
   height="500.00006"
   viewBox="0 0 132.29164 132.29169"
   version="1.1"
   id="svg1"
   xml:space="preserve"
   inkscape:version="1.3 (0e150ed6c4, 2023-07-21)"
   sodipodi:docname="svg-icon-assets.svg"
   xmlns:inkscape="http://www.inkscape.org/namespaces/inkscape"
   xmlns:sodipodi="http://sodipodi.sourceforge.net/DTD/sodipodi-0.dtd"
   xmlns="http://www.w3.org/2000/svg"
   xmlns:svg="http://www.w3.org/2000/svg"><sodipodi:namedview
     id="namedview1"
     pagecolor="#90c86c"
     bordercolor="#000000"
     borderopacity="0.25"
     inkscape:showpageshadow="2"
     inkscape:pageopacity="0.0"
     inkscape:pagecheckerboard="0"
     inkscape:deskcolor="#d1d1d1"
     inkscape:document-units="mm"
     shape-rendering="crispEdges"
     showgrid="true"
     inkscape:zoom="0.25606581"
     inkscape:cx="-583.8343"
     inkscape:cy="857.20153"
     inkscape:window-width="1920"
     inkscape:window-height="1009"
     inkscape:window-x="-8"
     inkscape:window-y="-8"
     inkscape:window-maximized="1"
     inkscape:current-layer="layer1"><inkscape:grid
       id="grid1"
       units="px"
       originx="-745.90205"
       originy="-5.4984793e-06"
       spacingx="0.26458332"
       spacingy="0.26458334"
       empcolor="#0099e5"
       empopacity="0.30196078"
       color="#0099e5"
       opacity="0.14901961"
       empspacing="5"
       dotted="false"
       gridanglex="30"
       gridanglez="30"
       visible="true" /></sodipodi:namedview><defs
     id="defs1" /><g
     inkscape:label="Layer 1"
     inkscape:groupmode="layer"
     id="layer1"
     transform="translate(-197.35325)"><g
       id="g1"
       transform="translate(197.35324)"
       style="fill:#000000"><path
         id="rect1"
         style="fill:#000000;stroke-width:0"
         d="M 13.229178,1.454806e-6 H 119.0625 c 7.32896,0 13.22917,5.900208045194 13.22917,13.229165545194 0,7.328958 -5.90021,13.229167 -13.22917,13.229167 H 13.229178 C 5.9002201,26.458334 1.2078713e-5,20.558125 1.2078713e-5,13.229167 1.2078713e-5,5.9002095 5.9002201,1.454806e-6 13.229178,1.454806e-6 Z" /><path
         id="rect1-8"
         style="fill:#000000;stroke-width:0"
         d="M 13.229173,52.916668 H 119.0625 c 7.32896,0 13.22916,5.900208 13.22916,13.229166 0,7.328958 -5.9002,13.229166 -13.22916,13.229166 H 13.229173 C 5.9002155,79.375 7.4139894e-6,73.474792 7.4139894e-6,66.145834 7.4139894e-6,58.816876 5.9002155,52.916668 13.229173,52.916668 Z" /><path
         id="rect1-8-2"
         style="fill:#000000;stroke-width:0"
         d="M 13.229171,105.83334 H 119.0625 c 7.32895,0 13.22916,5.90021 13.22916,13.22917 0,7.32896 -5.90021,13.22917 -13.22916,13.22917 H 13.229171 C 5.900213,132.29168 4.9426585e-6,126.39147 4.9426585e-6,119.06251 4.9426585e-6,111.73355 5.900213,105.83334 13.229171,105.83334 Z" /></g></g></svg>
