<?xml version="1.0" encoding="UTF-8" standalone="no"?>
<!-- Created with Inkscape (http://www.inkscape.org/) -->

<svg
   width="500"
   height="500"
   viewBox="0 0 132.29166 132.29167"
   version="1.1"
   id="svg1"
   xml:space="preserve"
   inkscape:version="1.3 (0e150ed6c4, 2023-07-21)"
   sodipodi:docname="svg-icon-assets.svg"
   xmlns:inkscape="http://www.inkscape.org/namespaces/inkscape"
   xmlns:sodipodi="http://sodipodi.sourceforge.net/DTD/sodipodi-0.dtd"
   xmlns="http://www.w3.org/2000/svg"
   xmlns:svg="http://www.w3.org/2000/svg"><sodipodi:namedview
     id="namedview1"
     pagecolor="#90c86c"
     bordercolor="#000000"
     borderopacity="0.25"
     inkscape:showpageshadow="2"
     inkscape:pageopacity="0.0"
     inkscape:pagecheckerboard="0"
     inkscape:deskcolor="#d1d1d1"
     inkscape:document-units="mm"
     shape-rendering="crispEdges"
     showgrid="true"
     inkscape:zoom="0.25606581"
     inkscape:cx="-583.8343"
     inkscape:cy="857.20153"
     inkscape:window-width="1920"
     inkscape:window-height="1009"
     inkscape:window-x="-8"
     inkscape:window-y="-8"
     inkscape:window-maximized="1"
     inkscape:current-layer="layer1"><inkscape:grid
       id="grid1"
       units="px"
       originx="-723.75004"
       originy="-629.99998"
       spacingx="0.26458332"
       spacingy="0.26458334"
       empcolor="#0099e5"
       empopacity="0.30196078"
       color="#0099e5"
       opacity="0.14901961"
       empspacing="5"
       dotted="false"
       gridanglex="30"
       gridanglez="30"
       visible="true" /></sodipodi:namedview><defs
     id="defs1" /><g
     inkscape:label="Layer 1"
     inkscape:groupmode="layer"
     id="layer1"
     transform="translate(-191.4922,-166.6875)"><g
       id="g2"
       transform="translate(191.49219,166.68751)"><path
         id="rect2"
         style="stroke-width:0"
         d="M 66.145832,-2.5431316e-6 C 74.024463,-2.5431316e-6 80.367187,6.4132661 80.367187,14.379524 V 117.91214 c 0,7.96626 -6.342724,14.37953 -14.221355,14.37953 -7.878631,0 -14.221355,-6.41327 -14.221355,-14.37953 V 14.379524 c 0,-7.9662579 6.342724,-14.3795265431316 14.221355,-14.3795265431316 z" /><path
         id="rect2-0"
         style="stroke-width:0"
         transform="rotate(90)"
         d="m 66.145832,-132.29167 c 7.878631,0 14.221355,6.41327 14.221355,14.37952 V -14.379526 C 80.367187,-6.4132687 74.024463,0 66.145832,0 58.267201,0 51.924477,-6.4132687 51.924477,-14.379526 V -117.91215 c 0,-7.96625 6.342724,-14.37952 14.221355,-14.37952 z" /></g></g></svg>
